<svg xmlns="http://www.w3.org/2000/svg" width="1280" height="1280" viewBox="0 0 1280 1280">
  <defs>
    <linearGradient id="bg" x1="0" y1="0" x2="1" y2="1">
      <stop offset="0%" stop-color="#ffffff"/>
      <stop offset="100%" stop-color="#f6f3ee"/>
    </linearGradient>
    <linearGradient id="cardGrad" x1="0" y1="0" x2="1" y2="1">
      <stop offset="0%" stop-color="#ffffff"/>
      <stop offset="100%" stop-color="#f4f8ff"/>
    </linearGradient>
    <filter id="softShadow" x="-20%" y="-20%" width="140%" height="140%">
      <feDropShadow dx="0" dy="12" stdDeviation="16" flood-color="#10243e" flood-opacity="0.12"/>
    </filter>
  </defs>

  <rect width="100%" height="100%" fill="url(#bg)"/>
  <rect x="72" y="56" width="1136" height="1168" rx="40" fill="url(#cardGrad)" stroke="#d4d7de" stroke-width="2" filter="url(#softShadow)"/>

  <rect x="259" y="152" width="762" height="762" rx="26" fill="white"/>

  <rect x="365" y="258" width="154" height="154" rx="29.70" fill="#10243e"/><rect x="387" y="280" width="110" height="110" rx="23.10" fill="white"/><rect x="409" y="302" width="66" height="66" rx="15.84" fill="#1f5fbf"/>
  <rect x="761" y="258" width="154" height="154" rx="29.70" fill="#10243e"/><rect x="783" y="280" width="110" height="110" rx="23.10" fill="white"/><rect x="805" y="302" width="66" height="66" rx="15.84" fill="#1f5fbf"/>
  <rect x="365" y="654" width="154" height="154" rx="29.70" fill="#10243e"/><rect x="387" y="676" width="110" height="110" rx="23.10" fill="white"/><rect x="409" y="698" width="66" height="66" rx="15.84" fill="#1f5fbf"/>
  <rect x="563" y="258" width="22" height="22" rx="4.40" fill="#134e8f"/><rect x="585" y="258" width="22" height="22" rx="4.40" fill="#134e8f"/><rect x="607" y="258" width="22" height="22" rx="4.40" fill="#134e8f"/><rect x="651" y="258" width="22" height="22" rx="4.40" fill="#134e8f"/><rect x="673" y="258" width="22" height="22" rx="4.40" fill="#134e8f"/><rect x="695" y="258" width="22" height="22" rx="4.40" fill="#134e8f"/><rect x="717" y="258" width="22" height="22" rx="4.40" fill="#134e8f"/><rect x="563" y="280" width="22" height="22" rx="4.40" fill="#134e8f"/><rect x="585" y="280" width="22" height="22" rx="4.40" fill="#134e8f"/><rect x="607" y="280" width="22" height="22" rx="4.40" fill="#134e8f"/><rect x="629" y="280" width="22" height="22" rx="4.40" fill="#134e8f"/><rect x="673" y="280" width="22" height="22" rx="4.40" fill="#134e8f"/><rect x="695" y="280" width="22" height="22" rx="4.40" fill="#134e8f"/><rect x="717" y="280" width="22" height="22" rx="4.40" fill="#134e8f"/><rect x="541" y="302" width="22" height="22" rx="4.40" fill="#134e8f"/><rect x="585" y="302" width="22" height="22" rx="4.40" fill="#134e8f"/><rect x="629" y="302" width="22" height="22" rx="4.40" fill="#134e8f"/><rect x="585" y="324" width="22" height="22" rx="4.40" fill="#134e8f"/><rect x="607" y="324" width="22" height="22" rx="4.40" fill="#134e8f"/><rect x="673" y="324" width="22" height="22" rx="4.40" fill="#134e8f"/><rect x="585" y="346" width="22" height="22" rx="4.40" fill="#134e8f"/><rect x="607" y="346" width="22" height="22" rx="4.40" fill="#134e8f"/><rect x="651" y="346" width="22" height="22" rx="4.40" fill="#134e8f"/><rect x="673" y="346" width="22" height="22" rx="4.40" fill="#134e8f"/><rect x="695" y="346" width="22" height="22" rx="4.40" fill="#134e8f"/><rect x="563" y="368" width="22" height="22" rx="4.40" fill="#134e8f"/><rect x="585" y="368" width="22" height="22" rx="4.40" fill="#134e8f"/><rect x="607" y="368" width="22" height="22" rx="4.40" fill="#134e8f"/><rect x="629" y="368" width="22" height="22" rx="4.40" fill="#134e8f"/><rect x="695" y="368" width="22" height="22" rx="4.40" fill="#134e8f"/><rect x="717" y="368" width="22" height="22" rx="4.40" fill="#134e8f"/><rect x="541" y="390" width="22" height="22" rx="4.40" fill="#134e8f"/><rect x="585" y="390" width="22" height="22" rx="4.40" fill="#134e8f"/><rect x="629" y="390" width="22" height="22" rx="4.40" fill="#134e8f"/><rect x="673" y="390" width="22" height="22" rx="4.40" fill="#134e8f"/><rect x="717" y="390" width="22" height="22" rx="4.40" fill="#134e8f"/><rect x="541" y="412" width="22" height="22" rx="4.40" fill="#134e8f"/><rect x="563" y="412" width="22" height="22" rx="4.40" fill="#134e8f"/><rect x="585" y="412" width="22" height="22" rx="4.40" fill="#134e8f"/><rect x="607" y="412" width="22" height="22" rx="4.40" fill="#134e8f"/><rect x="651" y="412" width="22" height="22" rx="4.40" fill="#134e8f"/><rect x="673" y="412" width="22" height="22" rx="4.40" fill="#134e8f"/><rect x="717" y="412" width="22" height="22" rx="4.40" fill="#134e8f"/><rect x="365" y="434" width="22" height="22" rx="4.40" fill="#134e8f"/><rect x="387" y="434" width="22" height="22" rx="4.40" fill="#134e8f"/><rect x="409" y="434" width="22" height="22" rx="4.40" fill="#134e8f"/><rect x="453" y="434" width="22" height="22" rx="4.40" fill="#134e8f"/><rect x="475" y="434" width="22" height="22" rx="4.40" fill="#134e8f"/><rect x="497" y="434" width="22" height="22" rx="4.40" fill="#134e8f"/><rect x="519" y="434" width="22" height="22" rx="4.40" fill="#134e8f"/><rect x="541" y="434" width="22" height="22" rx="4.40" fill="#134e8f"/><rect x="563" y="434" width="22" height="22" rx="4.40" fill="#134e8f"/><rect x="585" y="434" width="22" height="22" rx="4.40" fill="#134e8f"/><rect x="607" y="434" width="22" height="22" rx="4.40" fill="#134e8f"/><rect x="651" y="434" width="22" height="22" rx="4.40" fill="#134e8f"/><rect x="695" y="434" width="22" height="22" rx="4.40" fill="#134e8f"/><rect x="717" y="434" width="22" height="22" rx="4.40" fill="#134e8f"/><rect x="739" y="434" width="22" height="22" rx="4.40" fill="#134e8f"/><rect x="761" y="434" width="22" height="22" rx="4.40" fill="#134e8f"/><rect x="849" y="434" width="22" height="22" rx="4.40" fill="#134e8f"/><rect x="453" y="456" width="22" height="22" rx="4.40" fill="#134e8f"/><rect x="475" y="456" width="22" height="22" rx="4.40" fill="#134e8f"/><rect x="541" y="456" width="22" height="22" rx="4.40" fill="#134e8f"/><rect x="629" y="456" width="22" height="22" rx="4.40" fill="#134e8f"/><rect x="717" y="456" width="22" height="22" rx="4.40" fill="#134e8f"/><rect x="739" y="456" width="22" height="22" rx="4.40" fill="#134e8f"/><rect x="761" y="456" width="22" height="22" rx="4.40" fill="#134e8f"/><rect x="893" y="456" width="22" height="22" rx="4.40" fill="#134e8f"/><rect x="387" y="478" width="22" height="22" rx="4.40" fill="#134e8f"/><rect x="431" y="478" width="22" height="22" rx="4.40" fill="#134e8f"/><rect x="475" y="478" width="22" height="22" rx="4.40" fill="#134e8f"/><rect x="497" y="478" width="22" height="22" rx="4.40" fill="#134e8f"/><rect x="519" y="478" width="22" height="22" rx="4.40" fill="#134e8f"/><rect x="541" y="478" width="22" height="22" rx="4.40" fill="#134e8f"/><rect x="563" y="478" width="22" height="22" rx="4.40" fill="#134e8f"/><rect x="629" y="478" width="22" height="22" rx="4.40" fill="#134e8f"/><rect x="739" y="478" width="22" height="22" rx="4.40" fill="#134e8f"/><rect x="761" y="478" width="22" height="22" rx="4.40" fill="#134e8f"/><rect x="783" y="478" width="22" height="22" rx="4.40" fill="#134e8f"/><rect x="805" y="478" width="22" height="22" rx="4.40" fill="#134e8f"/><rect x="827" y="478" width="22" height="22" rx="4.40" fill="#134e8f"/><rect x="871" y="478" width="22" height="22" rx="4.40" fill="#134e8f"/><rect x="893" y="478" width="22" height="22" rx="4.40" fill="#134e8f"/><rect x="387" y="500" width="22" height="22" rx="4.40" fill="#134e8f"/><rect x="541" y="500" width="22" height="22" rx="4.40" fill="#134e8f"/><rect x="563" y="500" width="22" height="22" rx="4.40" fill="#134e8f"/><rect x="585" y="500" width="22" height="22" rx="4.40" fill="#134e8f"/><rect x="629" y="500" width="22" height="22" rx="4.40" fill="#134e8f"/><rect x="651" y="500" width="22" height="22" rx="4.40" fill="#134e8f"/><rect x="761" y="500" width="22" height="22" rx="4.40" fill="#134e8f"/><rect x="783" y="500" width="22" height="22" rx="4.40" fill="#134e8f"/><rect x="827" y="500" width="22" height="22" rx="4.40" fill="#134e8f"/><rect x="893" y="500" width="22" height="22" rx="4.40" fill="#134e8f"/><rect x="365" y="522" width="22" height="22" rx="4.40" fill="#134e8f"/><rect x="387" y="522" width="22" height="22" rx="4.40" fill="#134e8f"/><rect x="409" y="522" width="22" height="22" rx="4.40" fill="#134e8f"/><rect x="475" y="522" width="22" height="22" rx="4.40" fill="#134e8f"/><rect x="497" y="522" width="22" height="22" rx="4.40" fill="#134e8f"/><rect x="541" y="522" width="22" height="22" rx="4.40" fill="#134e8f"/><rect x="585" y="522" width="22" height="22" rx="4.40" fill="#134e8f"/><rect x="607" y="522" width="22" height="22" rx="4.40" fill="#134e8f"/><rect x="629" y="522" width="22" height="22" rx="4.40" fill="#134e8f"/><rect x="651" y="522" width="22" height="22" rx="4.40" fill="#134e8f"/><rect x="717" y="522" width="22" height="22" rx="4.40" fill="#134e8f"/><rect x="739" y="522" width="22" height="22" rx="4.40" fill="#134e8f"/><rect x="761" y="522" width="22" height="22" rx="4.40" fill="#134e8f"/><rect x="871" y="522" width="22" height="22" rx="4.40" fill="#134e8f"/><rect x="893" y="522" width="22" height="22" rx="4.40" fill="#134e8f"/><rect x="409" y="544" width="22" height="22" rx="4.40" fill="#134e8f"/><rect x="431" y="544" width="22" height="22" rx="4.40" fill="#134e8f"/><rect x="453" y="544" width="22" height="22" rx="4.40" fill="#134e8f"/><rect x="475" y="544" width="22" height="22" rx="4.40" fill="#134e8f"/><rect x="519" y="544" width="22" height="22" rx="4.40" fill="#134e8f"/><rect x="563" y="544" width="22" height="22" rx="4.40" fill="#134e8f"/><rect x="651" y="544" width="22" height="22" rx="4.40" fill="#134e8f"/><rect x="717" y="544" width="22" height="22" rx="4.40" fill="#134e8f"/><rect x="761" y="544" width="22" height="22" rx="4.40" fill="#134e8f"/><rect x="849" y="544" width="22" height="22" rx="4.40" fill="#134e8f"/><rect x="893" y="544" width="22" height="22" rx="4.40" fill="#134e8f"/><rect x="365" y="566" width="22" height="22" rx="4.40" fill="#134e8f"/><rect x="409" y="566" width="22" height="22" rx="4.40" fill="#134e8f"/><rect x="431" y="566" width="22" height="22" rx="4.40" fill="#134e8f"/><rect x="497" y="566" width="22" height="22" rx="4.40" fill="#134e8f"/><rect x="629" y="566" width="22" height="22" rx="4.40" fill="#134e8f"/><rect x="717" y="566" width="22" height="22" rx="4.40" fill="#134e8f"/><rect x="761" y="566" width="22" height="22" rx="4.40" fill="#134e8f"/><rect x="805" y="566" width="22" height="22" rx="4.40" fill="#134e8f"/><rect x="871" y="566" width="22" height="22" rx="4.40" fill="#134e8f"/><rect x="893" y="566" width="22" height="22" rx="4.40" fill="#134e8f"/><rect x="387" y="588" width="22" height="22" rx="4.40" fill="#134e8f"/><rect x="453" y="588" width="22" height="22" rx="4.40" fill="#134e8f"/><rect x="475" y="588" width="22" height="22" rx="4.40" fill="#134e8f"/><rect x="541" y="588" width="22" height="22" rx="4.40" fill="#134e8f"/><rect x="651" y="588" width="22" height="22" rx="4.40" fill="#134e8f"/><rect x="673" y="588" width="22" height="22" rx="4.40" fill="#134e8f"/><rect x="717" y="588" width="22" height="22" rx="4.40" fill="#134e8f"/><rect x="739" y="588" width="22" height="22" rx="4.40" fill="#134e8f"/><rect x="761" y="588" width="22" height="22" rx="4.40" fill="#134e8f"/><rect x="893" y="588" width="22" height="22" rx="4.40" fill="#134e8f"/><rect x="365" y="610" width="22" height="22" rx="4.40" fill="#134e8f"/><rect x="409" y="610" width="22" height="22" rx="4.40" fill="#134e8f"/><rect x="431" y="610" width="22" height="22" rx="4.40" fill="#134e8f"/><rect x="475" y="610" width="22" height="22" rx="4.40" fill="#134e8f"/><rect x="497" y="610" width="22" height="22" rx="4.40" fill="#134e8f"/><rect x="519" y="610" width="22" height="22" rx="4.40" fill="#134e8f"/><rect x="541" y="610" width="22" height="22" rx="4.40" fill="#134e8f"/><rect x="563" y="610" width="22" height="22" rx="4.40" fill="#134e8f"/><rect x="585" y="610" width="22" height="22" rx="4.40" fill="#134e8f"/><rect x="629" y="610" width="22" height="22" rx="4.40" fill="#134e8f"/><rect x="651" y="610" width="22" height="22" rx="4.40" fill="#134e8f"/><rect x="695" y="610" width="22" height="22" rx="4.40" fill="#134e8f"/><rect x="717" y="610" width="22" height="22" rx="4.40" fill="#134e8f"/><rect x="739" y="610" width="22" height="22" rx="4.40" fill="#134e8f"/><rect x="761" y="610" width="22" height="22" rx="4.40" fill="#134e8f"/><rect x="783" y="610" width="22" height="22" rx="4.40" fill="#134e8f"/><rect x="805" y="610" width="22" height="22" rx="4.40" fill="#134e8f"/><rect x="871" y="610" width="22" height="22" rx="4.40" fill="#134e8f"/><rect x="893" y="610" width="22" height="22" rx="4.40" fill="#134e8f"/><rect x="541" y="632" width="22" height="22" rx="4.40" fill="#134e8f"/><rect x="629" y="632" width="22" height="22" rx="4.40" fill="#134e8f"/><rect x="695" y="632" width="22" height="22" rx="4.40" fill="#134e8f"/><rect x="717" y="632" width="22" height="22" rx="4.40" fill="#134e8f"/><rect x="805" y="632" width="22" height="22" rx="4.40" fill="#134e8f"/><rect x="827" y="632" width="22" height="22" rx="4.40" fill="#134e8f"/><rect x="849" y="632" width="22" height="22" rx="4.40" fill="#134e8f"/><rect x="893" y="632" width="22" height="22" rx="4.40" fill="#134e8f"/><rect x="541" y="654" width="22" height="22" rx="4.40" fill="#134e8f"/><rect x="563" y="654" width="22" height="22" rx="4.40" fill="#134e8f"/><rect x="585" y="654" width="22" height="22" rx="4.40" fill="#134e8f"/><rect x="673" y="654" width="22" height="22" rx="4.40" fill="#134e8f"/><rect x="695" y="654" width="22" height="22" rx="4.40" fill="#134e8f"/><rect x="717" y="654" width="22" height="22" rx="4.40" fill="#134e8f"/><rect x="761" y="654" width="22" height="22" rx="4.40" fill="#134e8f"/><rect x="805" y="654" width="22" height="22" rx="4.40" fill="#134e8f"/><rect x="827" y="654" width="22" height="22" rx="4.40" fill="#134e8f"/><rect x="849" y="654" width="22" height="22" rx="4.40" fill="#134e8f"/><rect x="871" y="654" width="22" height="22" rx="4.40" fill="#134e8f"/><rect x="893" y="654" width="22" height="22" rx="4.40" fill="#134e8f"/><rect x="541" y="676" width="22" height="22" rx="4.40" fill="#134e8f"/><rect x="585" y="676" width="22" height="22" rx="4.40" fill="#134e8f"/><rect x="607" y="676" width="22" height="22" rx="4.40" fill="#134e8f"/><rect x="651" y="676" width="22" height="22" rx="4.40" fill="#134e8f"/><rect x="673" y="676" width="22" height="22" rx="4.40" fill="#134e8f"/><rect x="695" y="676" width="22" height="22" rx="4.40" fill="#134e8f"/><rect x="717" y="676" width="22" height="22" rx="4.40" fill="#134e8f"/><rect x="805" y="676" width="22" height="22" rx="4.40" fill="#134e8f"/><rect x="871" y="676" width="22" height="22" rx="4.40" fill="#134e8f"/><rect x="541" y="698" width="22" height="22" rx="4.40" fill="#134e8f"/><rect x="629" y="698" width="22" height="22" rx="4.40" fill="#134e8f"/><rect x="651" y="698" width="22" height="22" rx="4.40" fill="#134e8f"/><rect x="717" y="698" width="22" height="22" rx="4.40" fill="#134e8f"/><rect x="739" y="698" width="22" height="22" rx="4.40" fill="#134e8f"/><rect x="761" y="698" width="22" height="22" rx="4.40" fill="#134e8f"/><rect x="783" y="698" width="22" height="22" rx="4.40" fill="#134e8f"/><rect x="805" y="698" width="22" height="22" rx="4.40" fill="#134e8f"/><rect x="893" y="698" width="22" height="22" rx="4.40" fill="#134e8f"/><rect x="629" y="720" width="22" height="22" rx="4.40" fill="#134e8f"/><rect x="805" y="720" width="22" height="22" rx="4.40" fill="#134e8f"/><rect x="849" y="720" width="22" height="22" rx="4.40" fill="#134e8f"/><rect x="871" y="720" width="22" height="22" rx="4.40" fill="#134e8f"/><rect x="893" y="720" width="22" height="22" rx="4.40" fill="#134e8f"/><rect x="541" y="742" width="22" height="22" rx="4.40" fill="#134e8f"/><rect x="563" y="742" width="22" height="22" rx="4.40" fill="#134e8f"/><rect x="585" y="742" width="22" height="22" rx="4.40" fill="#134e8f"/><rect x="629" y="742" width="22" height="22" rx="4.40" fill="#134e8f"/><rect x="651" y="742" width="22" height="22" rx="4.40" fill="#134e8f"/><rect x="695" y="742" width="22" height="22" rx="4.40" fill="#134e8f"/><rect x="783" y="742" width="22" height="22" rx="4.40" fill="#134e8f"/><rect x="805" y="742" width="22" height="22" rx="4.40" fill="#134e8f"/><rect x="893" y="742" width="22" height="22" rx="4.40" fill="#134e8f"/><rect x="541" y="764" width="22" height="22" rx="4.40" fill="#134e8f"/><rect x="607" y="764" width="22" height="22" rx="4.40" fill="#134e8f"/><rect x="629" y="764" width="22" height="22" rx="4.40" fill="#134e8f"/><rect x="651" y="764" width="22" height="22" rx="4.40" fill="#134e8f"/><rect x="695" y="764" width="22" height="22" rx="4.40" fill="#134e8f"/><rect x="717" y="764" width="22" height="22" rx="4.40" fill="#134e8f"/><rect x="739" y="764" width="22" height="22" rx="4.40" fill="#134e8f"/><rect x="805" y="764" width="22" height="22" rx="4.40" fill="#134e8f"/><rect x="871" y="764" width="22" height="22" rx="4.40" fill="#134e8f"/><rect x="541" y="786" width="22" height="22" rx="4.40" fill="#134e8f"/><rect x="607" y="786" width="22" height="22" rx="4.40" fill="#134e8f"/><rect x="629" y="786" width="22" height="22" rx="4.40" fill="#134e8f"/><rect x="651" y="786" width="22" height="22" rx="4.40" fill="#134e8f"/><rect x="695" y="786" width="22" height="22" rx="4.40" fill="#134e8f"/><rect x="717" y="786" width="22" height="22" rx="4.40" fill="#134e8f"/><rect x="739" y="786" width="22" height="22" rx="4.40" fill="#134e8f"/><rect x="761" y="786" width="22" height="22" rx="4.40" fill="#134e8f"/><rect x="805" y="786" width="22" height="22" rx="4.40" fill="#134e8f"/><rect x="827" y="786" width="22" height="22" rx="4.40" fill="#134e8f"/><rect x="871" y="786" width="22" height="22" rx="4.40" fill="#134e8f"/><rect x="893" y="786" width="22" height="22" rx="4.40" fill="#134e8f"/>

  <text x="640.0" y="1118" text-anchor="middle" font-family="'Space Grotesk','Avenir Next','Segoe UI',sans-serif" font-size="54" font-weight="700" letter-spacing="1.0" fill="#10243e">@KLEINLAB.YALE</text>
  <text x="640.0" y="1162" text-anchor="middle" font-family="'Space Grotesk','Avenir Next','Segoe UI',sans-serif" font-size="28" font-weight="500" letter-spacing="1.5" fill="#134e8f">INSTAGRAM</text>
</svg>
